<svg xmlns="http://www.w3.org/2000/svg" viewBox="0 0 240 240" role="img" aria-label="Coffee Break">
  <defs>
    <path id="arc" d="M 38 128 A 82 82 0 0 1 202 128"/>
  </defs>
  <circle cx="120" cy="120" r="118" fill="#FBF4E8"/>
  <circle cx="120" cy="138" r="62" fill="#F3C9A9"/>
  <text font-family="'Instrument Serif', Georgia, serif" font-style="italic" font-size="38" fill="#C4552B" letter-spacing="1">
    <textPath href="#arc" startOffset="50%" text-anchor="middle">Coffee Break</textPath>
  </text>
  <!-- steam -->
  <path d="M104 84c-6-7 6-11 0-18M120 80c-6-7 6-11 0-18M136 84c-6-7 6-11 0-18" stroke="#8A5A3C" stroke-width="3" fill="none" stroke-linecap="round" opacity=".55"/>
  <!-- cat head -->
  <g stroke="#2A1A12" stroke-width="3" stroke-linejoin="round">
    <path d="M86 150 L90 104 L108 120 Q120 116 132 120 L150 104 L154 150 Z" fill="#FFFDF8"/>
    <path d="M90 104 L108 120 Q100 124 94 132 Z" fill="#2A1A12"/>
    <path d="M150 104 L132 120 Q142 122 150 136 Z" fill="#D9772F"/>
  </g>
  <ellipse cx="106" cy="138" rx="4" ry="5" fill="#2A1A12"/>
  <ellipse cx="134" cy="138" rx="4" ry="5" fill="#2A1A12"/>
  <path d="M117 146 h6 l-3 3 z" fill="#E08A7A"/>
  <path d="M120 149 q-4 5 -8 2 M120 149 q4 5 8 2" stroke="#2A1A12" stroke-width="2" fill="none" stroke-linecap="round"/>
  <!-- cup -->
  <path d="M74 150 H166 L158 196 Q156 204 148 204 H92 Q84 204 82 196 Z" fill="#6B3E26" stroke="#2A1A12" stroke-width="3" stroke-linejoin="round"/>
  <path d="M164 160 q20 2 16 20 q-4 14 -22 10" fill="none" stroke="#2A1A12" stroke-width="6" stroke-linecap="round"/>
  <path d="M164 160 q20 2 16 20 q-4 14 -22 10" fill="none" stroke="#6B3E26" stroke-width="2.5" stroke-linecap="round"/>
  <path d="M112 176 c0 -6 8 -6 8 0 c0 -6 8 -6 8 0 c0 7 -8 11 -8 13 c0 -2 -8 -6 -8 -13z" fill="#F3C9A9"/>
  <!-- paws -->
  <ellipse cx="100" cy="151" rx="9" ry="6" fill="#FFFDF8" stroke="#2A1A12" stroke-width="3"/>
  <ellipse cx="140" cy="151" rx="9" ry="6" fill="#FFFDF8" stroke="#2A1A12" stroke-width="3"/>
</svg>
